HIERARCHY
ROOT Hips
{
	OFFSET 0.000000 0.000000 0.000000
	CHANNELS 6 Xposition Yposition Zposition Xrotation Yrotation Zrotation
	JOINT LeftUpLeg_virtual
	{
		OFFSET 0.000000 0.000000 0.000000
		CHANNELS 3 Xrotation Yrotation Zrotation
		JOINT LeftUpLeg
		{
			OFFSET 11.394100 -6.187798 -0.413800
			CHANNELS 3 Xrotation Yrotation Zrotation
			JOINT LeftLeg
			{
				OFFSET 0.430247 -32.302673 3.732800
				CHANNELS 3 Xrotation Yrotation Zrotation
				JOINT LeftFoot
				{
					OFFSET -0.430247 -48.264931 -6.423300
					CHANNELS 3 Xrotation Yrotation Zrotation
					JOINT LeftToeBase
					{
						OFFSET 4.230900 -16.068199 23.438400
						CHANNELS 3 Xrotation Yrotation Zrotation
						JOINT LeftToe_End
						{
							OFFSET 4.510700 0.695400 19.974600
							CHANNELS 3 Xrotation Yrotation Zrotation
							End Site
							{
								OFFSET 0 0 0
							}
						}
					}
				}
			}
		}
	}
	JOINT RightUpLeg_virtual
	{
		OFFSET 0.000000 0.000000 0.000000
		CHANNELS 3 Xrotation Yrotation Zrotation
		JOINT RightUpLeg
		{
			OFFSET -11.333700 -6.187798 -0.413800
			CHANNELS 3 Xrotation Yrotation Zrotation
			JOINT RightLeg
			{
				OFFSET -0.430392 -32.302628 3.733000
				CHANNELS 3 Xrotation Yrotation Zrotation
				JOINT RightFoot
				{
					OFFSET 0.430392 -48.264973 -6.423500
					CHANNELS 3 Xrotation Yrotation Zrotation
					JOINT RightToeBase
					{
						OFFSET -4.230900 -16.068199 23.438400
						CHANNELS 3 Xrotation Yrotation Zrotation
						JOINT RightToe_End
						{
							OFFSET -4.510700 0.695400 19.974600
							CHANNELS 3 Xrotation Yrotation Zrotation
							End Site
							{
								OFFSET 0 0 0
							}
						}
					}
				}
			}
		}
	}
	JOINT Spine_virtual
	{
		OFFSET 0.000000 0.000000 0.000000
		CHANNELS 3 Xrotation Yrotation Zrotation
		JOINT Spine
		{
			OFFSET -0.002400 12.777504 0.315300
			CHANNELS 3 Xrotation Yrotation Zrotation
			JOINT Spine1
			{
				OFFSET -0.002067 5.816869 0.032633
				CHANNELS 3 Xrotation Yrotation Zrotation
				JOINT Spine1_split
				{
					OFFSET -0.002067 5.816869 0.032633
					CHANNELS 3 Xrotation Yrotation Zrotation
					JOINT Spine2
					{
						OFFSET -0.002067 5.816869 0.032633
						CHANNELS 3 Xrotation Yrotation Zrotation
						JOINT Neck_virtual
						{
							OFFSET 0.000000 0.000000 0.000000
							CHANNELS 3 Xrotation Yrotation Zrotation
							JOINT Neck
							{
								OFFSET -0.003700 21.199493 -0.826900
								CHANNELS 3 Xrotation Yrotation Zrotation
								JOINT Head
								{
									OFFSET 0.000000 20.442200 4.834800
									CHANNELS 3 Xrotation Yrotation Zrotation
									JOINT HeadTop_End
									{
										OFFSET 0.000000 34.668396 4.968400
										CHANNELS 3 Xrotation Yrotation Zrotation
										End Site
										{
											OFFSET 0 0 0
										}
									}
								}
							}
						}
						JOINT LeftShoulder_virtual
						{
							OFFSET 0.000000 0.000000 0.000000
							CHANNELS 3 Xrotation Yrotation Zrotation
							JOINT LeftShoulder
							{
								OFFSET 3.288150 8.794197 -1.372250
								CHANNELS 3 Xrotation Yrotation Zrotation
								JOINT LeftShoulder_split
								{
									OFFSET 3.288150 8.794197 -1.372250
									CHANNELS 3 Xrotation Yrotation Zrotation
									JOINT LeftArm
									{
										OFFSET 11.953299 -2.279007 -0.146200
										CHANNELS 3 Xrotation Yrotation Zrotation
										JOINT LeftForeArm
										{
											OFFSET 18.448900 0.000000 0.000000
											CHANNELS 3 Xrotation Yrotation Zrotation
											JOINT LeftHand
											{
												OFFSET 29.527798 0.000000 0.000000
												CHANNELS 3 Xrotation Yrotation Zrotation
												End Site
												{
													OFFSET 0 0 0
												}
											}
										}
									}
								}
							}
						}
						JOINT RightShoulder_virtual
						{
							OFFSET 0.000000 0.000000 0.000000
							CHANNELS 3 Xrotation Yrotation Zrotation
							JOINT RightShoulder
							{
								OFFSET -3.249400 8.794197 -1.372250
								CHANNELS 3 Xrotation Yrotation Zrotation
								JOINT RightShoulder_split
								{
									OFFSET -3.249400 8.794197 -1.372250
									CHANNELS 3 Xrotation Yrotation Zrotation
									JOINT RightArm
									{
										OFFSET -11.953299 -2.279007 -0.146200
										CHANNELS 3 Xrotation Yrotation Zrotation
										JOINT RightForeArm
										{
											OFFSET -18.448900 0.000000 0.000000
											CHANNELS 3 Xrotation Yrotation Zrotation
											JOINT RightHand
											{
												OFFSET -29.527802 0.000000 0.000000
												CHANNELS 3 Xrotation Yrotation Zrotation
												End Site
												{
													OFFSET 0 0 0
												}
											}
										}
									}
								}
							}
						}
					}
				}
			}
		}
	}
}
MOTION
Frames: 4
Frame Time: 0.03333333
13.701400 87.805206 -5.080624 0.000000 0.000000 0.000000 11.397941 7.592848 -8.502713 -61.657026 -2.527357 22.422854 50.206760 1.819338 1.052878 4.323386 1.151623 -14.887844 2.421396 -4.859340 6.824817 0.000000 0.000000 0.000000 11.974631 8.902409 -9.133964 -37.517044 -22.638425 0.295623 45.705310 7.007689 -4.318015 -21.006653 -18.386973 -2.985015 5.449575 2.807141 -27.744444 0.000000 0.000000 0.000000 10.825379 12.178460 -10.317621 11.297735 -10.453519 -4.126971 5.935108 -3.250685 -4.193105 0.076346 -0.181150 0.066046 0.000000 0.000000 0.000000 8.265947 -1.287337 -3.756902 -0.979479 13.016774 -13.660021 -26.581713 14.798814 35.392917 0.000000 0.000000 0.000000 6.388025 -2.430784 -4.214113 3.115822 -7.576050 -12.253303 3.152734 -6.029431 4.209577 -39.951685 14.898596 -15.348765 1.625513 -53.198595 -0.240136 0.000000 0.000000 0.000000 6.381327 -2.768687 -3.701186 -2.618767 3.104131 1.431476 10.956266 7.373424 -0.372881 16.661505 -19.627947 71.747913 -13.367101 66.635373 11.673806 0.000000 0.000000 0.000000 
13.476734 86.538734 -5.869015 0.000000 0.000000 0.000000 10.717924 6.048736 -7.902857 -62.204445 -3.008687 22.684670 52.293431 2.065069 0.473777 3.532980 2.131803 -14.554556 2.930793 -4.652738 6.359412 0.000000 0.000000 0.000000 11.469121 7.790282 -8.551200 -40.029212 -20.818623 0.499205 48.177187 6.133319 -4.463058 -20.688925 -18.690797 -2.506193 6.262267 2.468223 -27.780031 0.000000 0.000000 0.000000 9.971705 11.373749 -9.873086 12.476769 -9.888420 -3.786103 6.436066 -2.815149 -4.208848 0.129493 -0.219228 0.096818 0.000000 0.000000 0.000000 8.196598 -0.888008 -3.878149 -1.052450 12.346799 -12.871346 -25.536214 11.959502 35.716466 0.000000 0.000000 0.000000 6.501667 -2.126404 -4.604245 3.158395 -7.250948 -13.040987 2.554502 -5.804117 4.484196 -35.147511 18.799447 -18.908544 0.863917 -52.279313 -0.443724 0.000000 0.000000 0.000000 6.792837 -2.201296 -3.681483 -2.664672 4.298744 2.802389 10.376793 6.665050 -0.214341 13.687975 -17.105113 70.554734 -12.200253 62.702141 10.507330 0.000000 0.000000 0.000000 
13.166204 85.651207 -6.516521 0.000000 0.000000 0.000000 10.060971 4.475840 -7.433712 -62.397186 -3.443864 22.822365 53.960246 2.440181 0.039980 3.185057 2.978161 -14.140452 2.538807 -4.477789 5.677964 0.000000 0.000000 0.000000 10.943511 6.518810 -8.066092 -42.032458 -18.908122 0.989237 49.881575 5.264808 -4.472661 -20.077017 -18.806748 -2.293844 7.218617 2.116244 -27.280643 0.000000 0.000000 0.000000 9.152378 10.372593 -9.472657 13.295231 -9.261815 -3.484406 6.852784 -2.383635 -4.261651 0.176392 -0.246876 0.123942 0.000000 0.000000 0.000000 8.074153 -0.481951 -4.040536 -1.428405 11.734272 -11.961802 -23.812369 9.073047 35.469125 0.000000 0.000000 0.000000 6.584704 -1.814674 -4.964896 3.161654 -7.068820 -13.840239 1.809044 -5.322384 4.543247 -30.483001 21.470312 -23.197361 0.253743 -49.850624 -0.585155 0.000000 0.000000 0.000000 7.189247 -1.625756 -3.734401 -2.714087 5.326481 4.210828 9.796447 6.021884 -0.072209 10.304315 -14.405788 69.258651 -10.707195 58.590100 8.920590 0.000000 0.000000 0.000000 
12.792275 85.247482 -7.096066 0.000000 0.000000 0.000000 9.408732 3.032656 -7.124177 -62.295888 -3.830429 22.838170 55.042934 2.801177 -0.197404 3.427931 3.466046 -13.758511 1.205491 -4.363265 4.936782 0.000000 0.000000 0.000000 10.370836 5.226473 -7.716253 -43.381407 -17.120159 1.726888 50.873298 4.457049 -4.362417 -19.087276 -18.679522 -2.198704 7.887862 1.896535 -26.363354 0.000000 0.000000 0.000000 8.461663 9.266154 -9.154248 13.620056 -8.592543 -3.221816 7.147525 -1.981152 -4.322077 0.170494 -0.232908 0.119161 0.000000 0.000000 0.000000 7.874891 -0.104302 -4.218978 -2.040048 11.175751 -10.957126 -21.513943 6.357007 34.686460 0.000000 0.000000 0.000000 6.619470 -1.525820 -5.244212 3.131136 -7.023779 -14.603221 1.134740 -4.795575 4.299972 -26.357096 22.851127 -27.693417 -0.259850 -46.262746 -0.699141 0.000000 0.000000 0.000000 7.513688 -1.085803 -3.852066 -2.755824 6.174704 5.584340 9.387970 5.420175 0.058724 6.718669 -11.567394 68.131335 -9.028427 54.457501 7.099899 0.000000 0.000000 0.000000 
